<svg xmlns="http://www.w3.org/2000/svg" xmlns:xlink="http://www.w3.org/1999/xlink" width="500" zoomAndPan="magnify" viewBox="0 0 375 374.999991" height="500" preserveAspectRatio="xMidYMid meet" version="1.0"><defs><g/></defs><g fill="#ffffff" fill-opacity="1"><g transform="translate(126.066397, 232.579687)"><g><path d="M 85.3125 -118.484375 L 118.484375 -118.484375 C 119.722656 -118.484375 120.796875 -118.03125 121.703125 -117.125 C 122.609375 -116.226562 123.0625 -115.160156 123.0625 -113.921875 L 123.0625 -4.5625 C 123.0625 -3.320312 122.609375 -2.25 121.703125 -1.34375 C 120.796875 -0.445312 119.722656 0 118.484375 0 L 85.3125 0 C 84.070312 0 83 -0.445312 82.09375 -1.34375 C 81.1875 -2.25 80.734375 -3.320312 80.734375 -4.5625 L 80.734375 -41.125 L 53.3125 -41.125 L 53.3125 -4.5625 C 53.3125 -3.320312 52.859375 -2.25 51.953125 -1.34375 C 51.054688 -0.445312 49.988281 0 48.75 0 L 15.578125 0 C 14.328125 0 13.25 -0.421875 12.34375 -1.265625 C 11.445312 -2.109375 11 -3.207031 11 -4.5625 L 11 -113.921875 C 11 -115.160156 11.445312 -116.226562 12.34375 -117.125 C 13.25 -118.03125 14.328125 -118.484375 15.578125 -118.484375 L 48.75 -118.484375 C 49.988281 -118.484375 51.054688 -118.03125 51.953125 -117.125 C 52.859375 -116.226562 53.3125 -115.160156 53.3125 -113.921875 L 53.3125 -78.375 L 80.734375 -78.375 L 80.734375 -113.921875 C 80.734375 -115.160156 81.1875 -116.226562 82.09375 -117.125 C 83 -118.03125 84.070312 -118.484375 85.3125 -118.484375 Z M 85.3125 -118.484375 "/></g></g></g><g fill="#ffffff" fill-opacity="1"><g transform="translate(-3.263007, 232.649589)"><g><path d="M 105.796875 -118.296875 L 132.5 -118.296875 C 133.738281 -118.296875 134.804688 -117.84375 135.703125 -116.9375 C 136.609375 -116.039062 137.0625 -114.972656 137.0625 -113.734375 L 137.0625 -4.5625 C 137.0625 -3.320312 136.609375 -2.25 135.703125 -1.34375 C 134.804688 -0.445312 133.738281 0 132.5 0 L 101.90625 0 C 100.664062 0 99.59375 -0.445312 98.6875 -1.34375 C 97.789062 -2.25 97.34375 -3.320312 97.34375 -4.5625 L 97.34375 -50.875 L 86.1875 -32.609375 C 84.382812 -29.796875 82.300781 -28.390625 79.9375 -28.390625 L 68.109375 -28.390625 C 65.742188 -28.390625 63.660156 -29.796875 61.859375 -32.609375 L 50.703125 -50.875 L 50.703125 -4.5625 C 50.703125 -3.320312 50.25 -2.25 49.34375 -1.34375 C 48.445312 -0.445312 47.378906 0 46.140625 0 L 15.546875 0 C 14.304688 0 13.234375 -0.445312 12.328125 -1.34375 C 11.429688 -2.25 10.984375 -3.320312 10.984375 -4.5625 L 10.984375 -113.734375 C 10.984375 -114.972656 11.429688 -116.039062 12.328125 -116.9375 C 13.234375 -117.84375 14.304688 -118.296875 15.546875 -118.296875 L 42.25 -118.296875 C 45.40625 -118.296875 47.828125 -116.773438 49.515625 -113.734375 L 74.015625 -73.171875 L 98.53125 -113.734375 C 100.21875 -116.773438 102.640625 -118.296875 105.796875 -118.296875 Z M 105.796875 -118.296875 "/></g></g></g><g fill="#ffffff" fill-opacity="1"><g transform="translate(243.438152, 232.721608)"><g><path d="M 112.390625 -34.8125 C 113.628906 -34.8125 114.695312 -34.359375 115.59375 -33.453125 C 116.5 -32.554688 116.953125 -31.488281 116.953125 -30.25 L 116.953125 -4.5625 C 116.953125 -3.320312 116.5 -2.25 115.59375 -1.34375 C 114.695312 -0.445312 113.628906 0 112.390625 0 L 13.015625 0 C 11.773438 0 10.703125 -0.445312 9.796875 -1.34375 C 8.898438 -2.25 8.453125 -3.320312 8.453125 -4.5625 L 8.453125 -22.140625 C 8.453125 -26.191406 9.859375 -29.234375 12.671875 -31.265625 C 36.554688 -48.503906 51.035156 -59.320312 56.109375 -63.71875 C 64.109375 -70.695312 68.109375 -76.328125 68.109375 -80.609375 C 68.109375 -84.109375 67.207031 -86.191406 65.40625 -86.859375 C 64.5 -87.203125 63.507812 -87.375 62.4375 -87.375 C 61.375 -87.375 60.472656 -87.285156 59.734375 -87.109375 C 59.003906 -86.941406 58.359375 -86.71875 57.796875 -86.4375 C 57.234375 -86.15625 56.722656 -85.789062 56.265625 -85.34375 C 55.816406 -84.894531 55.453125 -84.5 55.171875 -84.15625 C 54.890625 -83.820312 54.578125 -83.316406 54.234375 -82.640625 C 53.898438 -81.960938 53.679688 -81.457031 53.578125 -81.125 C 53.015625 -79.769531 52.734375 -78.976562 52.734375 -78.75 C 51.828125 -76.15625 49.570312 -74.859375 45.96875 -74.859375 L 14.203125 -74.859375 C 13.179688 -74.859375 12.304688 -75.222656 11.578125 -75.953125 C 10.847656 -76.691406 10.484375 -77.566406 10.484375 -78.578125 C 10.484375 -91.085938 15.351562 -101.226562 25.09375 -109 C 34.84375 -116.78125 47.289062 -120.671875 62.4375 -120.671875 C 77.59375 -120.671875 89.707031 -117.316406 98.78125 -110.609375 C 107.851562 -103.910156 112.390625 -94.644531 112.390625 -82.8125 C 112.390625 -73.90625 109.289062 -65.847656 103.09375 -58.640625 C 96.894531 -51.429688 87.429688 -43.488281 74.703125 -34.8125 Z M 112.390625 -34.8125 "/></g></g></g></svg>